<svg width="296" height="296" viewBox="0 0 296 296" fill="none" xmlns="http://www.w3.org/2000/svg">
<rect width="296" height="296" fill="#FAFAFA"/>
<path d="M148.54 64.8094V102.363C166.831 76.3022 181.399 64 196.615 64C210.051 64 215.554 73.5504 215.554 84.5576C215.554 90.0612 214.097 95.5648 212.155 98.4785C208.432 97.3454 208.691 96.3742 193.702 96.3742C176.058 96.3742 157.281 102.202 149.187 110.781V199.81C149.187 212.112 151.939 214.702 173.306 217.13V228.137H88V217.13C107.101 214.864 109.691 212.112 109.691 201.752V98.9641C109.691 89.8993 108.396 87.6331 99.331 85.0432L88 82.1295V72.0935L148.54 64.8094Z" fill="#333333"/>
</svg>
