<svg width="249" height="175" viewBox="0 0 249 175" fill="none" xmlns="http://www.w3.org/2000/svg">
<path d="M12.3416 37.3995V42.7989H20.3636H28.5398L14.1928 57.1459C3.23966 68.0991 0 72.4186 0 75.6583C0 83.8346 5.86224 80.9034 21.9063 64.8594L37.0247 49.741V58.6886V67.482H42.4241H47.8235V49.741V32H30.0825H12.3416V37.3995Z" fill="#F6EFE1"/>
<path d="M58.6227 55.9118V79.8236H64.0222H69.4216V55.9118V32.0001H64.0222H58.6227V55.9118Z" fill="#F6EFE1"/>
<path d="M77.1349 56.0661V79.9779L82.2258 79.5151L87.1624 79.0523L87.6252 55.449L88.088 32.0001H82.5343H77.1349V56.0661Z" fill="#F6EFE1"/>
<path d="M94.1045 55.9118V79.8236H99.5039H104.903V55.9118V32.0001H99.5039H94.1045V55.9118Z" fill="#F6EFE1"/>
<path d="M0.462431 94.0164C1.07951 96.0219 1.54232 98.1817 1.54232 98.7988C1.54232 99.5701 3.08501 99.8787 5.09051 99.5701C7.55883 99.2616 8.48444 98.0274 8.48444 95.2506C8.48444 92.1652 7.55883 91.2396 4.01063 90.931C-0.000377461 90.4682 -0.308916 90.7768 0.462431 94.0164Z" fill="#F6EFE1"/>
<path d="M13.8844 92.9365C12.3417 94.7877 12.3417 95.7133 13.8844 97.5646C16.507 100.65 19.5923 100.496 21.4436 97.1018C24.2204 91.8566 17.7411 88.3084 13.8844 92.9365Z" fill="#F6EFE1"/>
<path d="M26.5345 92.4737C25.4547 93.5536 25.3004 95.0963 26.3803 97.1018C28.2315 100.496 31.3169 100.65 33.9395 97.5646C37.4877 93.245 30.6998 88.3084 26.5345 92.4737Z" fill="#F6EFE1"/>
<path d="M39.6477 91.7023C37.6422 93.5536 38.5678 98.4902 40.8819 99.2615C43.9672 100.496 47.824 97.256 47.824 93.5536C47.824 91.5481 46.7441 90.6224 44.2758 90.6224C42.2703 90.6224 40.1105 91.0852 39.6477 91.7023Z" fill="#F6EFE1"/>
<path d="M58.6227 97.7189C58.6227 106.049 60.6282 106.204 66.0277 98.3359C70.6558 91.5481 70.3472 90.6225 64.0222 90.6225C58.6227 90.6225 58.6227 90.6225 58.6227 97.7189Z" fill="#F6EFE1"/>
<path d="M74.9753 95.8676C73.7411 102.347 69.1131 108.363 63.0966 111.449C59.3941 113.454 58.6227 114.843 58.6227 119.317C58.6227 124.562 58.777 124.87 62.9423 123.79C74.204 121.014 84.0772 109.598 86.3912 96.639L87.4711 90.6225H81.7632C76.3637 90.6225 75.9009 91.0853 74.9753 95.8676Z" fill="#F6EFE1"/>
<path d="M93.0249 99.8786C89.9395 115.923 81.4547 125.642 65.8735 130.733C58.6228 133.047 57.8515 133.818 57.3887 138.446C56.9259 143.383 56.9259 143.537 62.0167 142.457C71.5814 140.606 86.0828 132.429 92.5621 125.025C98.7329 117.928 104.904 102.655 104.904 94.3249C104.904 91.2395 104.132 90.6224 99.8128 90.6224C94.8761 90.6224 94.7219 90.7767 93.0249 99.8786Z" fill="#F6EFE1"/>
<path d="M3.24019 107.592C5.24569 112.992 8.48535 112.992 8.48535 107.438C8.48535 104.815 7.55973 103.581 5.09142 103.273C1.85176 102.81 1.69749 103.118 3.24019 107.592Z" fill="#F6EFE1"/>
<path d="M13.421 104.815C12.4954 107.592 15.1179 112.22 17.7405 112.22C20.3631 112.22 22.9857 107.592 22.0601 104.815C21.5973 103.89 19.746 102.964 17.7405 102.964C15.735 102.964 13.8838 103.89 13.421 104.815Z" fill="#F6EFE1"/>
<path d="M27.3055 104.044C25.3 105.895 26.2256 110.832 28.6939 111.757C31.7793 112.837 35.636 108.363 34.4019 105.124C33.6305 102.964 29.0025 102.193 27.3055 104.044Z" fill="#F6EFE1"/>
<path d="M39.1846 105.278C37.9505 108.518 39.4932 112.22 42.1157 112.22C45.3554 112.22 47.978 108.363 46.8981 105.432C45.6639 102.347 40.2645 102.193 39.1846 105.278Z" fill="#F6EFE1"/>
<path d="M14.6557 116.231C11.7246 119.162 11.7246 119.162 14.6557 122.093C17.7411 125.179 21.5979 123.636 21.5979 119.162C21.5979 114.688 17.7411 113.146 14.6557 116.231Z" fill="#F6EFE1"/>
<path d="M27.151 116.231C24.5284 118.699 25.2998 122.402 28.5394 123.636C31.4706 124.716 35.6358 120.551 34.5559 117.62C33.3218 114.38 29.6193 113.609 27.151 116.231Z" fill="#F6EFE1"/>
<path d="M40.5731 114.843C37.7963 115.768 38.1048 122.556 40.8817 123.636C42.1158 124.099 44.1213 123.328 45.3555 122.093C49.058 118.391 45.5098 113.146 40.5731 114.843Z" fill="#F6EFE1"/>
<path d="M17.741 129.19C19.2837 130.887 21.1349 132.275 21.9063 132.275C22.6776 132.275 22.5234 130.887 21.5977 129.19C20.6721 127.493 18.8209 126.104 17.4325 126.104C15.2727 126.104 15.2727 126.413 17.741 129.19Z" fill="#F6EFE1"/>
<path d="M26.8436 128.418C25.4552 131.967 27.3064 135.361 30.7003 135.361C34.2485 135.361 36.0998 131.041 33.7857 128.264C31.4717 125.487 27.9235 125.487 26.8436 128.418Z" fill="#F6EFE1"/>
<path d="M38.8759 128.727C36.8704 132.738 38.2588 135.361 42.4241 135.361C46.5894 135.361 48.5949 131.35 46.1266 128.264C43.6583 125.333 40.4186 125.642 38.8759 128.727Z" fill="#F6EFE1"/>
<path d="M40.1101 139.989C40.1101 140.76 41.4986 141.531 43.3498 141.531C45.0468 141.531 45.9724 140.76 45.5096 139.989C45.0468 139.063 43.5041 138.446 42.2699 138.446C41.0358 138.446 40.1101 139.063 40.1101 139.989Z" fill="#F6EFE1"/>
<path d="M153.446 106.22C148.454 106.22 144.262 104.508 140.87 101.084C137.51 97.66 135.83 93.372 135.83 88.22C135.83 83.1 137.51 78.844 140.87 75.452C144.262 72.028 148.454 70.316 153.446 70.316C158.47 70.316 162.678 72.028 166.07 75.452C169.462 78.844 171.158 83.1 171.158 88.22C171.158 91.548 170.406 94.572 168.902 97.292C167.398 99.98 165.35 102.108 162.758 103.676L168.518 114.236H161.126L156.518 105.98C155.398 106.14 154.374 106.22 153.446 106.22ZM146.054 96.428C147.91 98.604 150.374 99.692 153.446 99.692C156.518 99.692 158.982 98.604 160.838 96.428C162.694 94.22 163.622 91.484 163.622 88.22C163.622 84.956 162.694 82.252 160.838 80.108C159.014 77.932 156.55 76.844 153.446 76.844C150.374 76.844 147.91 77.932 146.054 80.108C144.23 82.252 143.318 84.956 143.318 88.22C143.318 91.484 144.23 94.22 146.054 96.428ZM188.334 94.7V79.868H194.958V105.5H188.862V102.14C188.158 103.292 187.134 104.22 185.79 104.924C184.446 105.628 182.974 105.98 181.374 105.98C178.686 105.98 176.526 105.164 174.894 103.532C173.294 101.868 172.494 99.42 172.494 96.188V79.868H179.166V94.892C179.166 98.348 180.654 100.076 183.63 100.076C184.91 100.076 186.014 99.596 186.942 98.636C187.87 97.676 188.334 96.364 188.334 94.7ZM213.336 105.5V102.332C211.64 104.764 209.064 105.98 205.608 105.98C202.952 105.98 200.808 105.26 199.176 103.82C197.544 102.38 196.728 100.46 196.728 98.06C196.728 95.564 197.704 93.66 199.656 92.348C201.64 91.036 204.504 90.38 208.248 90.38C209.528 90.38 210.952 90.476 212.52 90.668V89.132C212.52 87.692 212.136 86.572 211.368 85.772C210.6 84.972 209.512 84.572 208.104 84.572C206.664 84.572 205.528 84.972 204.696 85.772C203.864 86.572 203.384 87.692 203.256 89.132H197.256C197.448 86.188 198.52 83.836 200.472 82.076C202.456 80.284 205 79.388 208.104 79.388C211.464 79.388 214.072 80.268 215.928 82.028C217.816 83.788 218.76 86.236 218.76 89.372V105.5H213.336ZM203.016 97.868C203.016 98.956 203.368 99.82 204.072 100.46C204.808 101.068 205.8 101.372 207.048 101.372C208.744 101.372 210.072 100.94 211.032 100.076C212.024 99.212 212.52 98.028 212.52 96.524V94.7C211.048 94.476 209.768 94.364 208.68 94.364C204.904 94.364 203.016 95.532 203.016 97.868ZM219.95 92.684C219.95 88.844 220.99 85.676 223.07 83.18C225.182 80.652 227.934 79.388 231.326 79.388C234.398 79.388 236.926 80.652 238.91 83.18V71.036H245.534V105.5H239.438V101.804C237.358 104.588 234.654 105.98 231.326 105.98C227.934 105.98 225.182 104.716 223.07 102.188C220.99 99.66 219.95 96.492 219.95 92.684ZM226.814 92.684C226.814 94.988 227.374 96.796 228.494 98.108C229.646 99.388 231.086 100.028 232.814 100.028C234.542 100.028 235.982 99.372 237.134 98.06C238.286 96.748 238.862 94.924 238.862 92.588C238.862 90.252 238.286 88.46 237.134 87.212C235.982 85.932 234.542 85.292 232.814 85.292C231.086 85.292 229.646 85.948 228.494 87.26C227.374 88.54 226.814 90.348 226.814 92.684Z" fill="#F6EFE1"/>
</svg>
