<svg width="76" height="134" viewBox="0 0 76 134" fill="none" xmlns="http://www.w3.org/2000/svg">
<path d="M8.89482 13.8913V17.7828H14.6764H20.5693L10.229 28.123C2.33489 36.0172 0 39.1304 0 41.4653C0 47.3581 4.22504 45.2456 15.7883 33.6823L26.6845 22.7862V29.2349V35.5725H30.5759H34.4674V22.7862V9.99986H21.6811H8.89482V13.8913Z" fill="#FBF3EC"/>
<path d="M42.2506 27.2336V44.4673H46.1421H50.0336V27.2336V9.99987H46.1421H42.2506V27.2336Z" fill="#FBF3EC"/>
<path d="M55.5927 27.3449V44.5786L59.2618 44.2451L62.8198 43.9115L63.1533 26.9002L63.4869 10H59.4842H55.5927V27.3449Z" fill="#FBF3EC"/>
<path d="M67.8231 27.2336V44.4673H71.7145H75.606V27.2336V9.99987H71.7145H67.8231V27.2336Z" fill="#FBF3EC"/>
<path d="M0.333279 54.6963C0.778019 56.1417 1.11158 57.6983 1.11158 58.143C1.11158 58.699 2.22343 58.9213 3.66884 58.699C5.4478 58.4766 6.11491 57.5871 6.11491 55.5858C6.11491 53.3621 5.4478 52.695 2.89054 52.4726C-0.000277021 52.139 -0.222647 52.3614 0.333279 54.6963Z" fill="#FBF3EC"/>
<path d="M10.0067 53.9184C8.89489 55.2526 8.89489 55.9197 10.0067 57.2539C11.8969 59.4776 14.1206 59.3664 15.4548 56.9204C17.4562 53.1401 12.7864 50.5828 10.0067 53.9184Z" fill="#FBF3EC"/>
<path d="M19.124 53.5848C18.3457 54.3631 18.2345 55.475 19.0128 56.9204C20.347 59.3664 22.5707 59.4776 24.4609 57.2539C27.0181 54.1407 22.126 50.5828 19.124 53.5848Z" fill="#FBF3EC"/>
<path d="M28.5749 53.0289C27.1295 54.3632 27.7966 57.9211 29.4644 58.477C31.6881 59.3665 34.4678 57.0316 34.4678 54.3632C34.4678 52.9178 33.6895 52.2506 31.9105 52.2506C30.4651 52.2506 28.9085 52.5842 28.5749 53.0289Z" fill="#FBF3EC"/>
<path d="M42.2506 57.365C42.2506 63.369 43.696 63.4802 47.5875 57.8097C50.9231 52.9176 50.7007 52.2505 46.1421 52.2505C42.2506 52.2505 42.2506 52.2505 42.2506 57.365Z" fill="#FBF3EC"/>
<path d="M54.0362 56.0306C53.1468 60.7004 49.8112 65.0366 45.475 67.2604C42.8065 68.7058 42.2506 69.7064 42.2506 72.9308C42.2506 76.7111 42.3618 76.9335 45.3638 76.1552C53.4803 74.1538 60.5962 65.9261 62.2639 56.5866L63.0422 52.2504H58.9284C55.0369 52.2504 54.7034 52.5839 54.0362 56.0306Z" fill="#FBF3EC"/>
<path d="M67.045 58.9215C64.8213 70.4848 58.7061 77.4895 47.4764 81.1586C42.2507 82.8263 41.6947 83.3823 41.3612 86.7178C41.0276 90.2758 41.0276 90.3869 44.6967 89.6086C51.5902 88.2744 62.0416 82.3816 66.7114 77.0447C71.1588 71.9302 75.6062 60.9229 75.6062 54.9189C75.6062 52.6952 75.0503 52.2504 71.9371 52.2504C68.3792 52.2504 68.268 52.3616 67.045 58.9215Z" fill="#FBF3EC"/>
<path d="M2.33525 64.4809C3.78065 68.3724 6.11554 68.3724 6.11554 64.3697C6.11554 62.4795 5.44843 61.5901 3.66947 61.3677C1.33458 61.0341 1.22339 61.2565 2.33525 64.4809Z" fill="#FBF3EC"/>
<path d="M9.67279 62.4795C9.00568 64.4808 10.8958 67.8164 12.786 67.8164C14.6761 67.8164 16.5663 64.4808 15.8992 62.4795C15.5656 61.8124 14.2314 61.1453 12.786 61.1453C11.3406 61.1453 10.0063 61.8124 9.67279 62.4795Z" fill="#FBF3EC"/>
<path d="M19.6797 61.9234C18.2343 63.2576 18.9014 66.8155 20.6803 67.4826C22.904 68.2609 25.6837 65.0365 24.7942 62.7017C24.2383 61.1451 20.9027 60.5891 19.6797 61.9234Z" fill="#FBF3EC"/>
<path d="M28.2412 62.8131C27.3517 65.148 28.4636 67.8164 30.3537 67.8164C32.6886 67.8164 34.5787 65.0368 33.8005 62.9243C32.911 60.7006 29.0195 60.5894 28.2412 62.8131Z" fill="#FBF3EC"/>
<path d="M10.5627 70.7073C8.4502 72.8198 8.4502 72.8198 10.5627 74.9323C12.7864 77.156 15.5661 76.0442 15.5661 72.8198C15.5661 69.5955 12.7864 68.4836 10.5627 70.7073Z" fill="#FBF3EC"/>
<path d="M19.5683 70.7072C17.6781 72.4862 18.2341 75.1546 20.5689 76.0441C22.6815 76.8224 25.6835 73.8204 24.9052 71.7079C24.0157 69.373 21.3472 68.8171 19.5683 70.7072Z" fill="#FBF3EC"/>
<path d="M29.2419 69.7067C27.2406 70.3738 27.4629 75.266 29.4643 76.0442C30.3538 76.3778 31.7992 75.8219 32.6887 74.9324C35.3571 72.2639 32.7998 68.4837 29.2419 69.7067Z" fill="#FBF3EC"/>
<path d="M12.7863 80.0468C13.8982 81.2698 15.2324 82.2705 15.7883 82.2705C16.3442 82.2705 16.2331 81.2698 15.566 80.0468C14.8988 78.8238 13.5646 77.8231 12.564 77.8231C11.0074 77.8231 11.0074 78.0455 12.7863 80.0468Z" fill="#FBF3EC"/>
<path d="M19.3467 79.4908C18.3461 82.0481 19.6803 84.4941 22.1264 84.4941C24.6836 84.4941 26.0178 81.381 24.3501 79.3796C22.6823 77.3783 20.125 77.3783 19.3467 79.4908Z" fill="#FBF3EC"/>
<path d="M28.0187 79.7132C26.5733 82.604 27.5739 84.4941 30.5759 84.4941C33.5779 84.4941 35.0234 81.6033 33.2444 79.3796C31.4654 77.2671 29.1305 77.4895 28.0187 79.7132Z" fill="#FBF3EC"/>
<path d="M28.9082 87.8296C28.9082 88.3855 29.9089 88.9414 31.2431 88.9414C32.4661 88.9414 33.1332 88.3855 32.7997 87.8296C32.4661 87.1624 31.3543 86.7177 30.4648 86.7177C29.5753 86.7177 28.9082 87.1624 28.9082 87.8296Z" fill="#FBF3EC"/>
<path d="M12.6312 128.472C9.36055 128.472 6.61406 127.35 4.39172 125.107C2.19034 122.863 1.08965 120.054 1.08965 116.679C1.08965 113.324 2.19034 110.536 4.39172 108.313C6.61406 106.07 9.36055 104.948 12.6312 104.948C15.9228 104.948 18.6797 106.07 20.9021 108.313C23.1244 110.536 24.2356 113.324 24.2356 116.679C24.2356 118.859 23.7429 120.84 22.7575 122.622C21.7721 124.383 20.4303 125.778 18.7321 126.805L22.5059 133.724H17.6629L14.6439 128.314C13.9101 128.419 13.2392 128.472 12.6312 128.472ZM7.78813 122.056C9.00413 123.482 10.6185 124.195 12.6312 124.195C14.6439 124.195 16.2582 123.482 17.4742 122.056C18.6902 120.61 19.2982 118.817 19.2982 116.679C19.2982 114.54 18.6902 112.769 17.4742 111.364C16.2792 109.938 14.6648 109.225 12.6312 109.225C10.6185 109.225 9.00413 109.938 7.78813 111.364C6.5931 112.769 5.99558 114.54 5.99558 116.679C5.99558 118.817 6.5931 120.61 7.78813 122.056ZM35.4887 120.924V111.207H39.8285V128H35.8346V125.799C35.3733 126.553 34.7025 127.161 33.8219 127.623C32.9413 128.084 31.9769 128.314 30.9287 128.314C29.1676 128.314 27.7524 127.78 26.6831 126.711C25.6349 125.62 25.1107 124.017 25.1107 121.899V111.207H29.482V121.05C29.482 123.314 30.4569 124.446 32.4067 124.446C33.2453 124.446 33.9687 124.132 34.5767 123.503C35.1847 122.874 35.4887 122.014 35.4887 120.924ZM51.8698 128V125.924C50.7586 127.518 49.0709 128.314 46.8066 128.314C45.0665 128.314 43.6618 127.843 42.5925 126.899C41.5233 125.956 40.9887 124.698 40.9887 123.126C40.9887 121.49 41.6281 120.243 42.907 119.383C44.2069 118.524 46.0833 118.094 48.5363 118.094C49.3749 118.094 50.3078 118.157 51.3352 118.282V117.276C51.3352 116.333 51.0836 115.599 50.5804 115.075C50.0772 114.551 49.3644 114.289 48.4419 114.289C47.4985 114.289 46.7542 114.551 46.2091 115.075C45.664 115.599 45.3495 116.333 45.2656 117.276H41.3346C41.4604 115.347 42.1627 113.806 43.4416 112.653C44.7415 111.479 46.4083 110.892 48.4419 110.892C50.6433 110.892 52.352 111.469 53.568 112.622C54.8049 113.775 55.4234 115.379 55.4234 117.433V128H51.8698ZM45.1084 123C45.1084 123.713 45.339 124.279 45.8003 124.698C46.2825 125.096 46.9324 125.295 47.75 125.295C48.8612 125.295 49.7313 125.012 50.3603 124.446C51.0102 123.88 51.3352 123.105 51.3352 122.119V120.924C50.3707 120.777 49.5321 120.704 48.8193 120.704C46.3454 120.704 45.1084 121.469 45.1084 123ZM56.2028 119.603C56.2028 117.087 56.8841 115.012 58.2469 113.377C59.6306 111.72 61.4337 110.892 63.656 110.892C65.6687 110.892 67.325 111.72 68.6248 113.377V105.42H72.9647V128H68.9708V125.578C67.608 127.402 65.8364 128.314 63.656 128.314C61.4337 128.314 59.6306 127.486 58.2469 125.83C56.8841 124.174 56.2028 122.098 56.2028 119.603ZM60.6999 119.603C60.6999 121.113 61.0668 122.297 61.8006 123.157C62.5553 123.996 63.4988 124.415 64.6309 124.415C65.763 124.415 66.7065 123.985 67.4612 123.126C68.216 122.266 68.5934 121.071 68.5934 119.54C68.5934 118.01 68.216 116.836 67.4612 116.018C66.7065 115.18 65.763 114.76 64.6309 114.76C63.4988 114.76 62.5553 115.19 61.8006 116.05C61.0668 116.888 60.6999 118.073 60.6999 119.603Z" fill="#FBF3EC"/>
</svg>
